# xmcd
#
# Track frame offsets: 
#        150
#        8502
#        26883
#        38756
#        46415
#        58480
#        68682
#        80569
#        91468
#        101983
#        112154
#        121894
#
# Disc length: 1774 seconds
#
# Revision: 0
# Processed by: cddbd v1.5.2PL0 Copyright (c) Steve Scherf et al.
# Submitted via: ExactAudioCopy v0.95b3
#
DISCID=a406ec0c
DTITLE=Johnny Cash - Songbook (Volume 3)
DYEAR=2006
DGENRE=Country
TTITLE0=Guess Things Happen That Way
TTITLE1=One Piece At A Time
TTITLE2=So Doggone Lonesome
TTITLE3=Come In Stranger
TTITLE4=You're The Nearest Thing To Heaven
TTITLE5=Straight A's In Love
TTITLE6=Thanks A Lot
TTITLE7=I Heard That Lonesome Whistle Blow
TTITLE8=Cold Cold Heart
TTITLE9=I Could Never Be Ashamed Of You
TTITLE10=It's Just About Time
TTITLE11=Mean Eyed Cat
EXTD=
EXTT0=
EXTT1=
EXTT2=
EXTT3=
EXTT4=
EXTT5=
EXTT6=
EXTT7=
EXTT8=
EXTT9=
EXTT10=
EXTT11=
PLAYORDER=
